<?xml version="1.0" encoding="UTF-8"?>
<svg id="Layer_1" xmlns="http://www.w3.org/2000/svg" version="1.1" viewBox="0 0 31.9 32">
  <!-- Generator: Adobe Illustrator 30.0.0, SVG Export Plug-In . SVG Version: 2.1.1 Build 123)  -->
  <defs>
    <style>
      .st0 {
        fill: #99943c;
      }
    </style>
  </defs>
  <path class="st0" d="M16.1,5.7c4.4.2,8.6,1.2,12.9,2,1,.3,1.7,1.2,1.9,2.2.6,1.6.7,3.3.8,4.9,0,.3.2.5.2.8,0,.2-.1.3-.2.5.1.5,0,1.1,0,1.6-.1.4,0,.9-.2,1.3-.2.7-.9,3.3-1.7,3.4-.2,0,0-.4.2-.6.8-1,.6-3,.6-4.2,0-1.2,0-2.5,0-3.7,0-.8.2-1.7.1-2.5,0-.1,0-.1-.2-.2-.3-.2-.2-.6-.1-.9,0-.1-.2,0-.3-.2-.2-.3-.4-.7-.8-1-.4-.3-.9-.6-1.3-.7-.1,0-.2-.1-.2-.2,0-.2-.5,0-.2.2.2.1.3.3.3.5.1.3.6-.1.7.5,0,.2,0,.2.3.2.3,0,.5.1.7.3.2.2.2.6.1.8,0,.1.2.1.3.2.1.2.2.4,0,.7-.1.2-.2.3-.1.6,0,.6.3,1,.3,1.6,0,.3-.4.9-.6.5-.1-1-.2-2.1-.2-3.1-.7-2-3.5-2.2-5.3-2.4-3.4-.2-6.8,0-10.2.2-1.5.2-3,.1-4.5.4-1.2.2-2.5,0-3.7,0-1.1.2-2.2.7-2.9,1.6-.8.7-.7,1.8-.7,2.8,0,.6,0,1.1,0,1.7,0,.2,0,.6,0,.8,0,.7,0,1.6,0,2.3,0,.5.2,1,.3,1.6,0,0,0,0,0,0-.8-.5-.4-1.6-.5-2.4-.3-2.6-.5-5.6.8-8,.5-1.1,1.6-1.1,2.6-1.4,3.2-.6,6.6-.5,9.8-.5,1.3,0,2.6.1,3.9.1.7,0,1.5,0,2.2,0,1.3.1,2.4-.3,3.6-.4.2,0,.3-.2,0-.3-.3,0-.6,0-.8,0-1-.1-2-.3-3.1-.4-2,0-4.1.2-6.2.3-.9,0-1.9,0-2.8.1-1.1.3-2.3.1-3.5.2-.4,0-.7-.2-1.1-.2-1,0-2.1,0-3.1.2-.3,0-1.8.4-.7-.1,1.2-.5,2.6-.4,3.7-1.1.2,0,.4.2.6.2.2,0,.5,0,.6-.2,0,0,.1,0,.3,0,.2,0,.4,0,.6,0,.3-.1.6-.1.9-.2.7-.3,1.5-.3,2.2-.4,1,0,3.2,0,3.7,0h0Z"/>
  <path class="st0" d="M0,12c0-.9.4-1.8,1.1-2.5.2-.2,2-1.7,1.3-.5-.3.5-.8.9-1.1,1.4-.4.8-.4,1.6-.2,2.4.2,1.5,0,3.3,0,4.8,0,.6,0,1.2,0,1.8,0,.3,0,.3,0,.5,0,.7,0,1.5.3,2.2.2.4.4.7.8,1,.6.5,1.2,1.1,2,1.2.6,0,1.2-.1,1.9,0,.5,0,1,0,1.5,0,2.9.2,5.7.4,8.6.6,1.2,0,2.3,0,3.5,0,.3,0,.5.3.7.3.2,0,.6-.1.8-.1,1.7-.1,3.3-.6,4.9-.8.8-.1,1.6-.3,2.3-.6.2,0,.2,0,.2.2-.3.4-.9.6-1.4.8-.7.3-1.5.4-2.2.6-.6.1-1.2,0-1.9,0-.2,0-.4,0-.6.1-.2,0-.5,0-.8.2-.4.3-.9.4-1.3,0-.2-.1-.3,0-.5,0-.1,0-.2,0-.3,0-.2,0-.7,0-.9,0-.1,0-.2.2-.4.2-.9,0-1.9.2-2.8.2-.6,0-1,0-1.6,0-.7,0-1.5,0-2.1,0-1.8,0-3.6-.3-5.3-.7-1.2-.3-2.4-.6-3.5-1.3-.7-.5-1.5-1.2-1.9-2-.7-1.9-.8-3.9-1-5.9,0-.3,0-.6,0-.9,0-.2,0-.4,0-.7,0-.8,0-2.1,0-2.8h0Z"/>
  <path class="st0" d="M8.9,15.4c-.1,0-.2.1-.4.2-.3.2-.5.3-.8.2,0,0-.2,0-.1-.1.7-.9,1.8-1.4,2.8-1.9,1.1-.4,2.2-.7,3.3-1,.5-.1,1-.2,1.5-.2.3-.1.7-.4,1-.5.6-.2,1.2-.4,1.8-.4.7,0,1.1.4.8,1,0,.5,1.5.6,1.8.8.7.2,1.4.3,2,.5.4.1.8.4,1.2.4.5-.1,1.1,0,1.6,0,.5.1.9.2,1.3.5.1,0,.1.2.2.4,0,.2.2.5.2.7.2.5.3.9.4,1.4,0,.2.2.2.3.4,0,.2.2.5.3.6,0,.1.3.1.4.2,0,0,0,.2,0,.2,0,.3.1.7.2,1,0,.4,0,.9,0,1.3,0,.2-.4.1-.6.2-.6.4-1,1.1-1.6,1.4,0,0-.1.3-.3.3,0,0-.2,0-.3,0-.8.4-1.8-.1-2.4-.6-.5-.1-.9-.3-1.3-.6-.2-.2-.5-.5-.5-.7,0-.1,0-.3-.1-.4-.2-.2-.4-.4-.6-.6-.5-.6-.6-1.3-.5-2.1,0-.2,0-.5-.2-.5-.4,0-.8,0-1.1.1-2.2.4-4.4,1-6.6,1.2-.9,0-1.9.2-2.7,0-.8-.3-3-1.9-2.8,0,0,.1,0,.1-.2,0-.1,0-.3-.2-.4-.3-.5,0-1,.2-1.5.2-.4,0-.8,0-1-.3-.2-.4-.3-.9.1-1.2.2-.1.4-.2.5-.2.2-.1,0-.5,0-.8,0-.6.1-1.5.9-1.4.8,0,1.1.8,1.2,1.5,0,.3.1.8.4,1.1.1,0,.4,0,.6,0,.4,0,.8.2,1.3.2.6,0,1.4,0,2,.2.3.1.6.3.9.4.9.1,1.8-.3,2.7-.5,1.1-.3,2.2-.8,3.4-1,.3,0,.5,0,.8,0,.2,0,.4,0,.7,0,.5,0,1,0,1.3-.4.7-.6,1.3-1.2,2-1.7.3-.1.1-.4-.1-.6-.4-.1-.8-.3-1.3-.3-.6,0-1.2.2-1.8-.1-.6-.2-1.3.3-1.6-.6,0-.1,0-.3-.2-.3-.3,0-.9,0-1.2,0-.5,0-1,0-1.4,0-.3,0-.7.4-1,.5-.7.3-1.4.3-2.1.4-.3,0-.2.3,0,.5.2.4.4.7.4,1.1-.4,1.4-.6,2.8-2.4,2.3-.2,0-.4-.1-.6-.2-.3-.1-.7-.2-1-.3-.3-.1-.7-.4-.7-.7,0,0,.3,0,.5.1.4.2.8.4,1.3.6.4.2.8,0,1.2-.2.4-.1.9-.3,1.2-.7,0-.1,0-.3.1-.4,0-.6-.3-1.1-.6-1.7-.2-.3-.8.2-1,.3-.3.2-.5.4-.5.7,0,.2.1.5,0,.7,0,.3-.5.3-.8.1,0,0-.1-.2-.2-.2,0-.1,0-.3-.2-.4h0ZM22.4,18.8s0,.2.1.3c.4.2,1,0,1.4-.1,1-.4,2-1.1,2.3-2.2.1-.4,0-.7-.4-.9-.3-.1-.6,0-.8,0-.6,0-1.2.2-1.7.6-.4.3-.6.9-.8,1.4-.2.5-.5.4-.4,0,0-.4.3-.7.6-1,.1-.2.2-.3.3-.5.3-.5.8-.6,1.3-.8,0,0,.1,0,0-.1,0,0-.2,0-.2,0-.5.2-1.1.5-1.5.7-.1,0-.3,0-.4,0,0,0,0,0,0,.1,0,0,0,.2-.1.2,0,0,0,0-.1,0-.3,0-.1.3-.2.5,0,.1-.2.3-.4.3-.1,0-.2.1-.2.2,0,.1.1.3.1.4,0,.3,0,.6-.2.8,0,0,0,.1,0,.1,0,0,0,0,.1,0,.3,0,.4.4.6.6.5.6,1.2,1,1.9,1.3.6.2,1.1.4,1.7.5.2,0,.3.3.4.4,0,0,.1,0,.2,0,.1,0,.3,0,.4,0,0,0,.2.2.2.2.2,0,.2-.2.5-.2.1,0,.3,0,.4,0,0,0,0-.3.2-.4,0-.1.4-.1.4-.2,0,0,0-.2,0-.3,0-.3,0-.7,0-1.1,0,0,0,0,0-.1,0-.2-.2-.3-.3-.4-.1-.3-.2-.6-.2-.9,0,0,0-.1,0-.1,0,0-.2-.1-.2-.2,0-.2,0-.4,0-.6,0-.1-.2-.2-.2-.3-.1-.2-.1-.6,0-.8,0-.1.1-.2,0-.3-.1,0-.3-.2-.3-.4,0-.1,0-.3-.2-.3-.1,0-.4,0-.3.2,0,.1.2.2.3.3.2.3.2.6.2,1-.2.9-.5,1.9-1.3,2.5-.6.5-1.4.6-2.2.6-.3,0-.5,0-.7-.3-.1-.2-.1-.6,0-.8h0ZM5.5,17.8c0,0,.3,0,.4,0,0,0,.2,0,.3,0,0,0,.1-.1.1-.2,0,0,0-.1,0-.2,0-.2-.4-1.7-.6-1.5,0,.1-.1.3-.2.4,0,.2,0,.5,0,.7,0,0,.1.2.1.3,0,.1,0,.3,0,.4h0Z"/>
  <path class="st0" d="M4.1,22.3c1.7.8,3.7.6,5.5.6.4,0,.8,0,1.2,0,.5,0,1,0,1.5,0,1,0,2,0,2.9.2,1.8.2,3.7.4,5.5.5.3,0,.7,0,1.1,0,.2,0,.5,0,.7,0,.4,0,.8-.2,1.2-.2.2,0,.5,0,.7,0,.2,0,.3.3.3.4,0,0,0,.2-.2.2-.3.1-.6.2-.9.3-1.2.3-2.4.2-3.6.3-.1,0-.3,0-.4-.1-.2-.2-.7,0-1-.1-.3,0-.6,0-.9,0-.6,0-1.1,0-1.6,0-1.6,0-3.3,0-4.9-.2-1.7-.1-3.4-.3-5.1-.6-1.3-.2-3.1-.3-3.6-1.8-.2-.6,1.2.4,1.4.5h0Z"/>
  <path class="st0" d="M21.5,21.4c-.3,1.4-2.4,1-3.4,1.3-.3,0-.6.2-.9.2-.5,0-.8-.3-1.3-.4-.4,0-1,0-1.4,0-.6,0-1.2-.2-1.6-.8-.2-.3.6,0,.8,0,.6.2,1.1.4,1.7.4.8.1,1.4-.3,2.2-.4.2,0,.5,0,.8,0,.4,0,.7,0,1.1,0,.7,0,1.4-.2,2-.2h0Z"/>
  <path class="st0" d="M10.7,10.8c0,.2.3.1.4.2.3,0,.5.2.8.1.1,0,.4,0,.4.1-.1.4-.6.2-.9.1-.2,0-.4,0-.6,0-.8,0-1.6.2-2.4.1-.3,0-.6,0-.9,0-.2,0-.4,0-.5,0-.3,0-.7,0-1-.2-.2-.1-.3-.5,0-.6.4,0,.5,0,1,0,.4,0,.6,0,1,0,.3,0,.5,0,.7,0,.3,0,.8,0,1.1,0,.2,0,.5,0,.8,0,.2,0,.4,0,.6,0,0,0,.1,0,0,.1,0,.2-.4,0-.5.1h0Z"/>
  <path class="st0" d="M7.7,19.4c.8.3,1.5.6,2.3,1,.1,0,.2.2.2.4,0,.1,0,.2,0,.2.2,0,.5-.1.6-.1,0,0,.2,0,.3,0,0,.2.1.5,0,.7-.1.2-.3,0-.5,0-.2,0-.3,0-.5-.1-.4-.1-.8-.2-1.3-.4-.6-.3-.7-1.2-1.1-1.6,0,0-.2-.2,0-.2h0Z"/>
  <path class="st0" d="M17.1,19.4c.2.1.4.4.6.6,0,.1.2.2.3.2.2,0,.6,0,.7,0,0,0,0,.2,0,.3-.1.2-.4,0-.5,0-.5.2-.9.4-1.4.5-.4.1-.9,0-1.1-.3,0-.1-.2-.4-.1-.6.2,0,.6,0,.8,0,0,0,0,0,0,0,0-.1,0-.3,0-.4,0-.2-.1-.3,0-.5.1,0,.3,0,.4,0,.1,0,.3.1.3.2h0Z"/>
  <path class="st0" d="M26.6,14.1c.1-.5.5-1,.9-1.3.3-.2.5,0,.8.2.6.5,0,1.2-.1,1.7-.1.4.4.5.5.8,0,.3-.1.5-.4.6-.3,0-.7,0-.6-.4.1-.2.2-.4.3-.7,0,0,0-.2,0-.3-.2-.3-.3-.6-.3-1,0,0,0,0,0,0-.2.1-.6.4-.9.6-.1,0-.1,0-.1-.2h0Z"/>
  <path class="st0" d="M18.7,18.6c.1,0,.4-.2.4,0,0,.2,0,.4.2.6.1.3.5.5.8.4,0,0,.2,0,.2,0,0,.2,0,.3-.2.4-.2.2-.5.2-.7.2-.3,0-.5-.3-.5-.6,0-.3-.4-.3-.6-.4-.1,0-.4-.1-.5-.3-.1-.1-.2-.3-.2-.5,0-.4.7,0,.9.1.1,0,.2,0,.3,0h0Z"/>
  <path class="st0" d="M29.8,21.3c-.2.4,0,.8-.4,1.2-.3.2-.7.2-.9.4-.3,0-.3.4-.5.5-.5.3-1,.5-1.6.6-.1,0-.1-.2,0-.2.2-.1.5-.2.8-.3.4-.3.8-.4,1.2-.6.3-.2.5-.5.7-.8.3-.4.6-.7.7-1.2.1-.2.4-.1.3.2,0,.1,0,.2-.1.3h0Z"/>
  <path class="st0" d="M15.9,13.9c0,.2.2.7-.1.9-.1,0-.2,0-.3.2-.2.2-.2.5-.4.7-.2,0-.5,0-.6-.3,0,0,0-.1,0-.2,0-.1.2-.3.2-.5,0-.1.1-.2.2-.4,0-.1.1-.3.2-.4.2-.4.6-.5.8,0h0Z"/>
  <path class="st0" d="M14.3,16c-.1.2-.5,0-.7-.1-.2-.2,0-.4,0-.7,0-.1-.1-.3-.2-.4,0-.1-.1-.3-.2-.4-.2-.6.5-.5.7-.2.2.3.3.7.3,1.1,0,.2,0,.5,0,.6h0Z"/>
  <path class="st0" d="M16.3,10.2c0,0,0,.2,0,.2-.1,0-.5,0-.6,0-.7,0-1.4.3-2,.5-.3,0-.5.2-.8.2-.3,0-.1-.2,0-.3.3-.2.7-.2,1.1-.3.6-.1,2.1-1.1,2.4-.3h0Z"/>
  <path class="st0" d="M27.1,19.4c.3.6,0,.9-.4,1.3-.2.2-.5.4-.7.4-.1,0-.4.1-.5,0,0,0,0-.3,0-.4,0,0,0-.1,0-.1.3,0,.5.1.8,0,0,0,.1,0,0,0,0,0-.2-.2-.3-.2,0,0-.1,0-.2,0-1,0-.3-.9.3-1.1.2,0,.7-.3.8,0h0Z"/>
</svg>